<svg xmlns="http://www.w3.org/2000/svg" width="240" height="240" viewBox="0 0 240 240" fill="none">
<path d="M239.001 221.04C244.79 209.584 228.246 152.308 113.538 152.308C30.7419 152.308 -7.25931 199.19 1.14201 222.949" fill="url(#paint0_radial_48_6143)"/>
<mask id="mask0_48_6143" style="mask-type:alpha" maskUnits="userSpaceOnUse" x="0" y="152" width="240" height="71">
<path d="M239.001 221.04C244.79 209.584 228.246 152.308 113.538 152.308C30.7419 152.308 -7.25931 199.19 1.14201 222.949" fill="white"/>
</mask>
<g mask="url(#mask0_48_6143)">
<ellipse opacity="0.671968" cx="95.8455" cy="184.428" rx="6.30841" ry="3.50401" fill="url(#paint1_linear_48_6143)"/>
<ellipse opacity="0.729957" cx="160.235" cy="179.079" rx="9.95327" ry="5.46626" fill="url(#paint2_linear_48_6143)"/>
<ellipse opacity="0.729957" cx="46.963" cy="164.502" rx="9.95327" ry="5.46626" fill="url(#paint3_linear_48_6143)"/>
</g>
<g opacity="0.320685">
<ellipse cx="186.151" cy="56.7723" rx="6.72897" ry="6.7277" fill="url(#paint4_linear_48_6143)"/>
<path d="M192.276 60.8785C190.359 60.7899 187.852 60.2355 185.283 59.3006C182.714 58.3658 180.436 57.1791 178.911 56.015C178.267 55.5234 177.797 55.0642 177.533 54.6908C177.61 54.6707 177.698 54.6516 177.796 54.6344C178.536 54.5043 179.615 54.5226 180.902 54.7039L181.371 51.3724C177.644 50.8469 174.94 51.3223 174.16 53.4635C173.027 56.5779 177.643 60.101 184.132 62.4623C190.621 64.8236 196.422 65.0917 197.556 61.9774C198.351 59.7934 196.61 58.068 192.912 55.7793L191.141 58.6402C192.399 59.4186 193.339 60.1065 193.91 60.6727C193.95 60.7122 193.987 60.7505 194.022 60.7874C193.588 60.8765 192.992 60.9116 192.276 60.8785Z" fill="url(#paint5_linear_48_6143)"/>
<path d="M192.892 56.7723C192.892 53.0566 189.879 50.0446 186.163 50.0446C182.447 50.0446 180.119 52.4202 179.639 55.0987C179.639 55.0987 183.507 57.5203 185.293 58.0408C185.863 58.2068 186.427 58.4221 187.002 58.613C187.646 58.8265 188.3 59.0149 188.963 59.1783C189.417 59.2901 190.038 59.4629 190.619 59.5708C191.384 59.7132 192.07 59.7767 192.124 59.7767C192.219 59.7767 192.323 59.3537 192.537 58.8607C192.751 58.3678 192.892 56.7723 192.892 56.7723Z" fill="url(#paint6_linear_48_6143)"/>
</g>
<circle opacity="0.418364" cx="38.309" cy="96.4611" r="7.84615" fill="url(#paint7_linear_48_6143)"/>
<ellipse opacity="0.425921" cx="123.23" cy="163.384" rx="23.5385" ry="6.46154" fill="url(#paint8_linear_48_6143)"/>
<path d="M106.982 126.462C106.982 126.462 106.338 128.328 106.338 129.64C105.693 141.065 107.291 159.692 107.291 159.692H109.772L113.435 131.664L118.4 159.692H120.841C120.841 159.692 121.163 141.7 120.196 129.64C120.196 128.342 119.634 127.097 119.634 127.097L106.982 126.462Z" fill="url(#paint9_linear_48_6143)"/>
<path d="M104.8 112L99.8807 113.164L98.202 112.718L87.5379 111.17L84.9628 111.17L84.9527 107.761L85.5879 109.07L86.731 109.429C86.731 109.429 87.3472 108.184 87.5379 108.397C87.7286 108.609 87.8113 109.483 87.8113 109.483L88.7641 109.976L100.117 109.976L102.8 108.4L104.8 112Z" fill="#FDE7E6"/>
<path d="M120.8 112L125.866 113.164L127.545 112.718L138.209 111.17L141.127 109.682L142.118 107.702L141.747 107.65L140.159 109.07L139.016 109.429C139.016 109.429 138.4 108.184 138.209 108.397C138.018 108.609 137.936 109.483 137.936 109.483L136.983 109.976L125.63 109.976L122.8 108.4L120.8 112Z" fill="#FDE7E6"/>
<path d="M123.691 108.609L122.13 112.41H118.313L119.999 128.198C119.999 128.198 115.186 129.007 112.641 129.203C110.096 129.399 106.474 128.198 106.474 128.198C106.474 128.198 106.474 122.693 106.474 112.812C106.474 112.812 103.085 112.41 103.085 112.41L102.461 108.609C102.461 108.609 105.626 106.387 106.474 106.018C107.322 105.648 110.189 105.23 110.189 105.23L114.724 105.23C114.724 105.23 118.327 105.37 119.008 106.018C119.689 106.665 123.691 108.609 123.691 108.609Z" fill="url(#paint10_linear_48_6143)"/>
<path fill-rule="evenodd" clip-rule="evenodd" d="M114.416 102.462H111.576V106.231H114.416V102.462ZM112.712 108.388C112.712 107.853 111.576 106.231 111.576 106.231H114.416C114.416 106.231 112.712 108.924 112.712 108.388Z" fill="#FECECD"/>
<ellipse cx="112.861" cy="101.314" rx="2.98944" ry="4.23698" fill="#FFE9E9"/>
<path fill-rule="evenodd" clip-rule="evenodd" d="M109.581 101.589C109.82 100.79 109.82 99.0278 110.298 98.9703C110.777 98.9129 111.733 99.2465 112.69 98.5992C113.168 98.244 113.407 98.1995 113.407 98.021C115.799 98.4462 114.369 99.7292 115.56 101.143C115.684 101.29 116.038 101.143 116.038 101.143C116.038 101.143 116.038 97.6626 115.799 97.3521C115.56 97.0416 114.603 95.7913 114.125 96.6832C114.125 96.2372 113.168 95.7771 112.212 96.1187C111.255 96.4602 109.82 97.1291 109.581 98.021C109.342 98.9129 109.103 100.697 109.581 101.589Z" fill="#513450"/>
<path d="M107.481 159.692L106.817 160.822C106.382 161.563 106.152 162.407 106.152 163.267V163.267C106.152 163.332 106.205 163.384 106.27 163.384H109.356C109.626 163.384 109.845 163.166 109.845 162.896V162.896C109.845 161.998 109.68 161.109 109.358 160.271L109.136 159.692H107.481Z" fill="#677285"/>
<path d="M120.519 159.692L121.183 160.822C121.618 161.563 121.848 162.407 121.848 163.267V163.267C121.848 163.332 121.795 163.384 121.73 163.384H118.644C118.374 163.384 118.155 163.166 118.155 162.896V162.896C118.155 161.998 118.32 161.109 118.642 160.271L118.864 159.692H120.519Z" fill="#677285"/>
<path d="M84.9629 21.0344H87.7321V161.804C87.7321 162.568 87.1122 163.188 86.3475 163.188V163.188C85.5828 163.188 84.9629 162.568 84.9629 161.804V21.0344Z" fill="#D8D8D8"/>
<path d="M84.9238 21.1171L101.915 25.1585C108.174 26.6473 114.769 25.5806 120.239 22.1945V22.1945C127.957 17.4171 137.398 16.3115 146.011 19.1762L151.847 21.1171L147.232 55.6518L145.932 55.1217C137.574 51.7116 128.031 53.0355 120.917 58.5919V58.5919C115.224 63.0386 107.568 64.0498 100.915 61.2338L84.9238 54.4645V21.1171Z" fill="#8ED28E"/>
<path d="M125.899 29.2155C126.82 28.1709 128.405 28.0878 129.43 29.0304C130.444 29.9627 130.527 31.5483 129.617 32.5816L114.407 49.8313C113.96 50.3384 113.339 50.6345 112.68 50.669C112.022 50.7036 111.373 50.474 110.876 50.0165L101.97 41.8281C100.956 40.8958 100.873 39.3101 101.784 38.277C102.705 37.2324 104.29 37.1493 105.315 38.0918L112.361 44.5697L125.899 29.2155Z" fill="white"/>
<mask id="mask1_48_6143" style="mask-type:alpha" maskUnits="userSpaceOnUse" x="101" y="28" width="30" height="23">
<path d="M125.899 29.2155C126.82 28.1709 128.405 28.0878 129.43 29.0304C130.444 29.9627 130.527 31.5483 129.617 32.5816L114.407 49.8313C113.96 50.3384 113.339 50.6345 112.68 50.669C112.022 50.7036 111.373 50.474 110.876 50.0165L101.97 41.8281C100.956 40.8958 100.873 39.3101 101.784 38.277C102.705 37.2324 104.29 37.1493 105.315 38.0918L112.361 44.5697L125.899 29.2155Z" fill="white"/>
</mask>
<g mask="url(#mask1_48_6143)">
<path opacity="0.8" d="M112.474 44.4235L106.565 50.7414L100.102 46.4584L109.322 37.1939L112.474 44.4235Z" fill="url(#paint11_linear_48_6143)"/>
</g>
<path d="M84.3691 108.519C84.3691 108.519 85.7538 107.827 85.7538 108.058C85.7538 108.288 85.7538 110.827 85.7538 110.827L84.8307 111.288L84.3691 108.519Z" fill="#FFE9E9"/>
<defs>
<radialGradient id="paint0_radial_48_6143" cx="0" cy="0" r="1" gradientUnits="userSpaceOnUse" gradientTransform="translate(104.089 176.806) rotate(-90) scale(41.0722 428.958)">
<stop stop-color="#EBEDF0" stop-opacity="0.24"/>
<stop offset="0.536775" stop-color="#EBEDF0" stop-opacity="0.845525"/>
<stop offset="1" stop-color="#E0E4E7" stop-opacity="0.01"/>
</radialGradient>
<linearGradient id="paint1_linear_48_6143" x1="90.7678" y1="183.499" x2="92.6897" y2="187.609" gradientUnits="userSpaceOnUse">
<stop stop-color="#E1E7EA"/>
<stop offset="1" stop-color="#D0D6DC"/>
</linearGradient>
<linearGradient id="paint2_linear_48_6143" x1="151.877" y1="178.568" x2="155.394" y2="185.903" gradientUnits="userSpaceOnUse">
<stop stop-color="#E1E7EA"/>
<stop offset="1" stop-color="#D0D6DC"/>
</linearGradient>
<linearGradient id="paint3_linear_48_6143" x1="40.6166" y1="164.59" x2="42.6065" y2="172.518" gradientUnits="userSpaceOnUse">
<stop stop-color="#FBFBFB"/>
<stop offset="1" stop-color="#D9DFE3"/>
</linearGradient>
<linearGradient id="paint4_linear_48_6143" x1="176.959" y1="52.1396" x2="180.323" y2="63.7717" gradientUnits="userSpaceOnUse">
<stop stop-color="#ECECEC"/>
<stop offset="0.717538" stop-color="#E1E7EA"/>
<stop offset="1" stop-color="#BCC3CA"/>
</linearGradient>
<linearGradient id="paint5_linear_48_6143" x1="179.812" y1="59.4027" x2="196.308" y2="65.4069" gradientUnits="userSpaceOnUse">
<stop stop-color="#BAC6D2"/>
<stop offset="1" stop-color="#7F8F9F"/>
</linearGradient>
<linearGradient id="paint6_linear_48_6143" x1="183.674" y1="56.1933" x2="185.875" y2="60.6383" gradientUnits="userSpaceOnUse">
<stop stop-color="#E1E7EA"/>
<stop offset="1" stop-color="#D0D6DC"/>
</linearGradient>
<linearGradient id="paint7_linear_48_6143" x1="48.6241" y1="98.79" x2="40.7894" y2="85.5586" gradientUnits="userSpaceOnUse">
<stop stop-color="#DAE2E6"/>
<stop offset="0.58" stop-color="#E3EBEF"/>
<stop offset="1" stop-color="#EDF6F9"/>
</linearGradient>
<linearGradient id="paint8_linear_48_6143" x1="105.562" y1="164.15" x2="118.783" y2="184.718" gradientUnits="userSpaceOnUse">
<stop stop-color="#C4CDD1"/>
<stop offset="1" stop-color="#C6CFD3" stop-opacity="0.01"/>
</linearGradient>
<linearGradient id="paint9_linear_48_6143" x1="120.866" y1="159.692" x2="120.866" y2="126.711" gradientUnits="userSpaceOnUse">
<stop stop-color="#A1A7B8"/>
<stop offset="1" stop-color="#7B8195"/>
</linearGradient>
<linearGradient id="paint10_linear_48_6143" x1="134.432" y1="116.189" x2="114" y2="139.558" gradientUnits="userSpaceOnUse">
<stop stop-color="#E5E9F0"/>
<stop offset="1" stop-color="#D2DAE8"/>
</linearGradient>
<linearGradient id="paint11_linear_48_6143" x1="103.06" y1="44.116" x2="109.036" y2="48.3315" gradientUnits="userSpaceOnUse">
<stop stop-color="#67D666" stop-opacity="0.01"/>
<stop offset="1" stop-color="#67D666" stop-opacity="0.2"/>
</linearGradient>
</defs>
</svg>