<svg xmlns="http://www.w3.org/2000/svg" width="248" height="185" viewBox="0 0 248 185" fill="none">
<path d="M247.798 162.281H0V162.405H247.798V162.281Z" fill="#EBEBEB"/>
<path d="M222.969 170.258H215.584V170.382H222.969V170.258Z" fill="#EBEBEB"/>
<path d="M164.152 171.603H159.844V171.727H164.152V171.603Z" fill="#EBEBEB"/>
<path d="M213.492 165.656H196.547V165.78H213.492V165.656Z" fill="#EBEBEB"/>
<path d="M54.3318 168.213H32.9258V168.337H54.3318V168.213Z" fill="#EBEBEB"/>
<path d="M66.4641 168.213H58.7441V168.337H66.4641V168.213Z" fill="#EBEBEB"/>
<path d="M126.255 166.55H79.8301V166.674H126.255V166.55Z" fill="#EBEBEB"/>
<path d="M117.463 140.178H21.7626C21.0125 140.177 20.2934 139.879 19.7631 139.349C19.2327 138.818 18.9344 138.099 18.9336 137.349V2.828C18.9347 2.07812 19.2331 1.35927 19.7634 0.829121C20.2938 0.298968 21.0127 0.000793618 21.7626 0H117.463C118.212 0.00105816 118.931 0.299348 119.461 0.829472C119.991 1.3596 120.29 2.07829 120.291 2.828V137.347C120.29 138.097 119.992 138.817 119.462 139.347C118.932 139.878 118.213 140.177 117.463 140.178ZM21.7636 0.124001C21.0482 0.126111 20.3626 0.411253 19.8567 0.917145C19.3508 1.42304 19.0657 2.10857 19.0636 2.824V137.347C19.0657 138.062 19.3508 138.748 19.8567 139.254C20.3626 139.76 21.0482 140.045 21.7636 140.047H117.464C118.179 140.045 118.865 139.76 119.37 139.254C119.876 138.748 120.161 138.062 120.164 137.347V2.828C120.161 2.11256 119.876 1.42703 119.37 0.921143C118.865 0.415251 118.179 0.130113 117.464 0.128002L21.7636 0.124001Z" fill="#EBEBEB"/>
<path d="M224.659 140.178H128.959C128.209 140.177 127.49 139.879 126.96 139.348C126.43 138.818 126.132 138.099 126.131 137.349V2.828C126.132 2.07821 126.43 1.35936 126.96 0.829182C127.49 0.299001 128.209 0.000794128 128.959 0H224.659C225.409 0.000793618 226.128 0.298968 226.658 0.829121C227.188 1.35927 227.487 2.07812 227.488 2.828V137.347C227.488 138.097 227.19 138.817 226.659 139.348C226.129 139.879 225.409 140.177 224.659 140.178ZM128.959 0.124001C128.243 0.126111 127.558 0.411253 127.052 0.917145C126.546 1.42304 126.261 2.10857 126.259 2.824V137.347C126.261 138.062 126.546 138.748 127.052 139.254C127.558 139.76 128.243 140.045 128.959 140.047H224.659C225.375 140.046 226.062 139.762 226.569 139.256C227.076 138.75 227.362 138.063 227.364 137.347V2.828C227.362 2.1117 227.076 1.42542 226.569 0.919384C226.062 0.41335 225.375 0.128793 224.659 0.128002L128.959 0.124001Z" fill="#EBEBEB"/>
<path d="M106.292 162.279H115.521L115.521 98.9073H106.292V162.279Z" fill="#E6E6E6"/>
<path d="M109.542 162.279H106.293V150.239H112.948L109.542 162.279Z" fill="#F0F0F0"/>
<path d="M203.888 162.279H213.117V98.9073H203.888V162.279Z" fill="#E6E6E6"/>
<path d="M106.294 158.992H206.723V98.9072L106.294 98.9072L106.294 158.992Z" fill="#F0F0F0"/>
<path d="M203.478 162.279H206.727V150.239H200.068L203.478 162.279Z" fill="#F0F0F0"/>
<path d="M173.613 103.882V153.586H203.384V103.882H173.613Z" fill="#E6E6E6"/>
<path d="M185.554 105.63H191.444C193.937 105.655 196.349 104.749 198.208 103.088H178.791C180.65 104.748 183.062 105.655 185.554 105.63Z" fill="#F0F0F0"/>
<path d="M141.623 103.882V153.586H171.394V103.882H141.623Z" fill="#E6E6E6"/>
<path d="M153.264 105.63H159.154C161.646 105.655 164.058 104.748 165.917 103.088H146.5C148.359 104.749 150.771 105.655 153.264 105.63Z" fill="#F0F0F0"/>
<path d="M109.633 103.882V153.586H139.404V103.882H109.633Z" fill="#E6E6E6"/>
<path d="M121.274 105.63H127.164C129.656 105.655 132.069 104.749 133.928 103.088H114.51C116.369 104.749 118.781 105.655 121.274 105.63Z" fill="#F0F0F0"/>
<path d="M34.6823 162.279H97.6523L97.6523 20.7273H34.6823L34.6823 162.279Z" fill="#F0F0F0"/>
<path d="M34.6813 162.279H96.3223L96.3223 20.7273H34.6813L34.6813 162.279Z" fill="#F5F5F5"/>
<path d="M92.5664 159.067L92.5664 23.9395L38.4374 23.9395L38.4374 159.067H92.5664Z" fill="#EAECF0"/>
<path d="M87.2478 49.0705C87.2478 47.1326 86.8661 45.2136 86.1245 43.4232C85.3829 41.6328 84.2959 40.006 82.9256 38.6357C81.5553 37.2654 79.9285 36.1784 78.1381 35.4368C76.3477 34.6952 74.4287 34.3135 72.4908 34.3135H58.5148C54.601 34.3135 50.8475 35.8682 48.08 38.6357C45.3126 41.4032 43.7578 45.1567 43.7578 49.0705H87.2478Z" fill="#FAFAFA"/>
<path d="M87.248 150.669V118.387H43.758V150.669H87.248Z" fill="#F5F5F5"/>
<path d="M87.2475 58.1729H68.0645V114.222H87.2475V58.1729Z" fill="#F5F5F5"/>
<path d="M62.9408 58.1729H43.7578V114.222H62.9408V58.1729Z" fill="#F5F5F5"/>
<path d="M50.7147 85.9448H42.8577C42.5346 85.944 42.225 85.8153 41.9966 85.5869C41.7682 85.3585 41.6395 85.0489 41.6387 84.7258C41.6397 84.4029 41.7685 84.0934 41.9969 83.865C42.2253 83.6367 42.5347 83.5079 42.8577 83.5068H50.7147C51.0377 83.5079 51.3471 83.6367 51.5755 83.865C51.8038 84.0934 51.9326 84.4029 51.9337 84.7258C51.9329 85.0489 51.8042 85.3585 51.5758 85.5869C51.3473 85.8153 51.0377 85.944 50.7147 85.9448Z" fill="#E0E0E0"/>
<path d="M39.4141 159.067L39.4141 23.9395H38.4401L38.4401 159.067H39.4141Z" fill="#F0F0F0"/>
<path d="M137.483 83.3711L204.262 83.3711V20.7271L137.483 20.7271V83.3711Z" fill="#E6E6E6"/>
<path d="M135.801 83.3711L202.58 83.3711V20.7271L135.801 20.7271V83.3711Z" fill="#F5F5F5"/>
<path d="M131.901 86.9971L204.262 86.9971V83.3711L131.901 83.3711V86.9971Z" fill="#E6E6E6"/>
<path d="M130.007 86.9971L198.641 86.9971V83.3711L130.007 83.3711V86.9971Z" fill="#F5F5F5"/>
<path d="M199.557 80.1133V23.9863L138.821 23.9863V80.1133H199.557Z" fill="white"/>
<path d="M170.873 80.1133V23.9863H167.506V80.1133H170.873Z" fill="#F5F5F5"/>
<path d="M140.094 80.1133V23.9863H138.821V80.1133H140.094Z" fill="#E6E6E6"/>
<path d="M172.145 80.1133V23.9863H170.872V80.1133H172.145Z" fill="#E6E6E6"/>
<path d="M146.459 85.0322C145.231 72.3072 144.376 51.6582 145.04 44.7522C145.052 44.6335 145.088 44.5186 145.148 44.4152C145.207 44.3117 145.287 44.2221 145.384 44.1522C145.512 44.0582 145.665 44.0022 145.823 43.9906C145.982 43.9789 146.141 44.0121 146.282 44.0863C146.422 44.1605 146.539 44.2728 146.619 44.4104C146.699 44.5479 146.739 44.7051 146.734 44.8642C146.617 48.2862 146.482 56.8392 147.211 71.5942C147.574 78.9392 148.097 83.9692 147.738 85.0302L146.459 85.0322Z" fill="#E6E6E6"/>
<path d="M141.881 55.7033C138.381 51.8203 131.242 49.0593 123.964 49.0733C121.107 49.0793 132.657 53.5903 137.464 58.5733C141.305 62.7113 144.467 67.4314 146.833 72.5583C145.905 64.9533 145.378 59.5843 141.881 55.7033Z" fill="#E6E6E6"/>
<path d="M148.811 56.8857C151.711 52.8417 158.418 49.7317 165.671 49.3797C168.518 49.2417 157.685 54.3167 153.642 59.5187C150.417 63.8666 147.966 68.7379 146.395 73.9187C146.183 66.3057 145.907 60.9307 148.811 56.8857Z" fill="#E6E6E6"/>
<path d="M141.725 41.5213C138.764 38.2333 132.716 35.8953 126.553 35.9073C124.134 35.9073 133.914 39.7333 137.981 43.9483C141.234 47.4521 143.912 51.4489 145.915 55.7903C145.133 49.3563 144.684 44.8093 141.725 41.5213Z" fill="#E6E6E6"/>
<path d="M147.594 46.3847C150.053 42.9597 155.73 40.3267 161.871 40.0287C164.282 39.9117 155.109 44.2087 151.685 48.6137C148.953 52.2972 146.877 56.4244 145.548 60.8137C145.37 54.3617 145.135 49.8077 147.594 46.3847Z" fill="#E6E6E6"/>
<path d="M146.953 98.9073C145.107 98.9073 143.332 98.2015 141.99 96.9346C140.648 95.6677 139.842 93.9356 139.736 92.0933L139.098 81.0303H154.808L154.17 92.0933C154.064 93.9356 153.257 95.6677 151.915 96.9346C150.574 98.2015 148.798 98.9073 146.953 98.9073Z" fill="#E6E6E6"/>
<path d="M155.825 83.5453H138.084L137.576 78.9453H156.337L155.825 83.5453Z" fill="#E6E6E6"/>
<path d="M123.9 184.664C176.969 184.664 219.991 182.152 219.991 179.052C219.991 175.953 176.969 173.44 123.9 173.44C70.83 173.44 27.8086 175.953 27.8086 179.052C27.8086 182.152 70.83 184.664 123.9 184.664Z" fill="#F5F5F5"/>
<path d="M125.838 173.689L121.7 174.155L120.174 164.771L124.312 164.305L125.838 173.689Z" fill="#FFC3BD"/>
<path d="M144.364 174.593H140.232L139.203 165.024H143.335L144.364 174.593Z" fill="#FFC3BD"/>
<path d="M139.892 174.112H144.929C145.011 174.112 145.091 174.14 145.155 174.192C145.219 174.243 145.263 174.314 145.281 174.394L146.097 178.067C146.116 178.157 146.115 178.249 146.093 178.338C146.072 178.427 146.03 178.51 145.972 178.581C145.914 178.651 145.84 178.708 145.757 178.746C145.674 178.785 145.584 178.804 145.492 178.802C143.871 178.774 142.692 178.679 140.648 178.679C139.392 178.679 135.604 178.809 133.87 178.809C132.17 178.809 131.909 177.094 132.619 176.939C135.803 176.239 138.202 175.282 139.219 174.366C139.404 174.201 139.644 174.111 139.892 174.112Z" fill="#263238"/>
<path d="M121.632 173.446L126.116 172.938C126.198 172.928 126.28 172.947 126.35 172.991C126.419 173.034 126.471 173.1 126.498 173.178L127.723 176.735C127.754 176.821 127.765 176.913 127.755 177.004C127.745 177.095 127.714 177.182 127.665 177.259C127.616 177.336 127.55 177.401 127.472 177.449C127.394 177.497 127.306 177.526 127.215 177.535C125.595 177.691 123.247 177.861 121.215 178.092C118.838 178.362 118.442 178.998 115.638 178.933C113.938 178.893 113.512 177.168 114.225 177.033C117.473 176.402 118.101 175.911 120.682 173.885C120.952 173.653 121.281 173.501 121.632 173.446Z" fill="#263238"/>
<path d="M125.283 53.1775C123.895 54.3235 122.529 55.3195 121.116 56.3395C119.703 57.3595 118.26 58.3065 116.775 59.2255C115.29 60.1445 113.766 61.0255 112.168 61.8255C110.534 62.6719 108.834 63.3816 107.083 63.9475C106.62 64.0955 106.169 64.2175 105.649 64.3475C105.141 64.4578 104.626 64.5402 104.109 64.5945C103.178 64.6945 102.302 64.7395 101.429 64.7795C99.6891 64.8595 97.9821 64.8575 96.2771 64.8455C92.8671 64.8045 89.4861 64.6405 86.0901 64.3405L86.0391 61.2405C89.3741 60.8115 92.7241 60.4405 96.0391 60.0675C97.6961 59.8875 99.3491 59.6855 100.964 59.4745C101.764 59.3655 102.564 59.2375 103.302 59.1005C103.619 59.0445 103.933 58.9707 104.242 58.8795C104.533 58.7795 104.89 58.6655 105.22 58.5325C106.637 57.9572 108.013 57.2842 109.337 56.5185C110.708 55.7315 112.08 54.8865 113.428 53.9885C114.776 53.0905 116.118 52.1605 117.448 51.2115C118.778 50.2625 120.107 49.2575 121.355 48.3115L125.283 53.1775Z" fill="#FFC3BD"/>
<path d="M129.32 49.6454C128.726 53.5514 120.502 59.5264 120.502 59.5264L114.602 52.2034C117.186 49.4451 119.927 46.8371 122.81 44.3924C125.465 42.2224 129.966 45.3954 129.32 49.6454Z" fill="#98A2B3"/>
<path d="M87.1772 61.5675L84.8312 59.8975L84.5742 65.1735C84.9288 65.1744 85.2783 65.0885 85.5921 64.9232C85.9058 64.758 86.1744 64.5184 86.3742 64.2255L87.1772 61.5675Z" fill="#FFC3BD"/>
<path d="M82.7105 58.3613L82.2305 63.5323L84.5745 65.1733L84.8315 59.8973L82.7105 58.3613Z" fill="#FFC3BD"/>
<path opacity="0.2" d="M120.176 164.774L120.962 169.611L125.101 169.145L124.315 164.308L120.176 164.774Z" fill="black"/>
<path opacity="0.2" d="M143.337 165.024H139.203L139.735 169.956H143.869L143.337 165.024Z" fill="black"/>
<path d="M143.396 44.5172C143.704 44.5862 143.995 44.716 144.252 44.8991C144.508 45.0822 144.726 45.3148 144.892 45.5833C145.057 45.8517 145.167 46.1506 145.216 46.4623C145.264 46.7739 145.25 47.0921 145.173 47.3981C144.277 51.1196 143.601 54.8909 143.149 58.6921C142.758 61.8921 142.524 64.9491 142.378 67.7201C142.035 74.2151 142.178 79.1661 141.984 80.8441C138.753 80.6201 126.577 79.7731 119.938 79.3091C117.697 61.7651 120.323 50.5691 121.798 46.0201C122.024 45.3113 122.447 44.6812 123.017 44.2032C123.587 43.7252 124.281 43.419 125.018 43.3201C125.864 43.2091 126.876 43.1021 127.944 43.0391C128.318 43.0151 128.697 43.0021 129.083 42.9941C132.217 43.0312 135.347 43.2489 138.456 43.6461C139.046 43.7161 139.642 43.8031 140.222 43.8961C141.381 44.0901 142.483 44.3132 143.396 44.5172Z" fill="#D0D5DD"/>
<path d="M138.264 33.033C137.464 36.007 136.486 41.491 138.456 43.651C133.346 47.088 130.084 51.927 129.143 50.876C128.65 50.326 128.436 43.961 129.084 42.997C132.503 42.429 132.59 39.928 132.168 37.544L138.264 33.033Z" fill="#FFC3BD"/>
<path d="M138.06 42.418C138.06 42.418 129.733 46.103 128.629 54.343C130.923 51.687 135.99 48.797 135.99 48.797L133.755 48.155C135.176 47.6155 136.648 47.2196 138.148 46.973C137.9 45.835 139.222 43.565 139.222 43.565L138.06 42.418Z" fill="#98A2B3"/>
<path d="M130.549 42.2852C130.549 42.2852 131.659 46.9912 128.632 54.3432C128.035 51.7771 127.216 49.2677 126.186 46.8432L128.225 47.3982C128.225 47.3982 128.125 46.4492 126.474 45.1872C127.162 44.1879 128.02 43.317 129.009 42.6142L130.549 42.2852Z" fill="#98A2B3"/>
<path opacity="0.2" d="M135.78 34.874L132.172 37.542C132.279 38.0972 132.337 38.6607 132.345 39.226C133.645 39.126 135.505 37.843 135.736 36.508C135.849 35.9705 135.864 35.4169 135.78 34.874Z" fill="black"/>
<path d="M127.683 24.421C125.668 24.508 124.556 27.982 126.601 30.843C128.646 33.704 130.398 24.304 127.683 24.421Z" fill="#263238"/>
<path d="M137.621 27.4779C137.86 31.5719 138.208 33.9549 136.406 36.2879C133.696 39.7969 128.456 38.5389 126.999 34.5989C125.688 31.0529 125.517 24.9539 129.299 22.8589C130.131 22.3925 131.069 22.1466 132.022 22.1445C132.976 22.1425 133.915 22.3844 134.748 22.8473C135.582 23.3101 136.284 23.9786 136.787 24.7891C137.29 25.5995 137.577 26.5251 137.621 27.4779Z" fill="#FFC3BD"/>
<path d="M138.223 30.6241C137.128 29.9823 136.172 29.1292 135.41 28.1144C134.648 27.0996 134.096 25.9434 133.786 24.7131C132.586 24.9971 126.605 27.7491 124.766 24.7131C122.927 21.6771 125.241 19.8961 128.682 21.7651C127.16 19.0791 128.544 17.765 133.326 17.649C138.108 17.533 137.465 20.3051 137.465 20.3051C137.465 20.3051 141.085 18.7291 142.365 21.5051C143.848 24.6951 141.112 30.1421 138.223 30.6241Z" fill="#263238"/>
<path d="M136.645 19.5722C136.689 19.5722 138.456 19.9972 140.492 17.9482C140.127 19.6962 136.965 20.8602 136.965 20.8602L136.645 19.5722Z" fill="#263238"/>
<path d="M139.022 25.5609C137.115 24.9019 134.806 27.7269 135.659 31.1379C136.512 34.5489 141.591 26.4489 139.022 25.5609Z" fill="#263238"/>
<path d="M140.101 30.8834C139.926 31.9001 139.356 32.8062 138.515 33.4034C137.394 34.1854 136.384 33.2914 136.315 31.9974C136.257 30.8334 136.769 29.0234 138.076 28.7564C138.363 28.7028 138.658 28.7217 138.936 28.8114C139.214 28.9012 139.465 29.0589 139.666 29.2702C139.867 29.4815 140.012 29.7398 140.088 30.0215C140.164 30.3033 140.169 30.5995 140.101 30.8834Z" fill="#FFC3BD"/>
<path d="M126.151 125.863C127.144 113.777 134.428 80.3196 134.428 80.3196L119.934 79.3086C119.934 79.3086 114.345 112.52 113.917 125.124C113.471 138.229 118.742 167.355 118.742 167.355L125.693 166.564C125.693 166.564 125.154 137.999 126.151 125.863Z" fill="#98A2B3"/>
<path opacity="0.5" d="M126.151 125.863C127.144 113.777 134.428 80.3196 134.428 80.3196L119.934 79.3086C119.934 79.3086 114.345 112.52 113.917 125.124C113.471 138.229 118.742 167.355 118.742 167.355L125.693 166.564C125.693 166.564 125.154 137.999 126.151 125.863Z" fill="white"/>
<path opacity="0.2" d="M128.969 91.6504C126.047 95.3864 125.995 108.507 127.125 118.201C128.202 111.208 129.899 102.327 131.386 94.9244L128.969 91.6504Z" fill="black"/>
<path d="M127.756 79.8545C127.756 79.8545 129.32 115.229 131.065 127.209C132.975 140.328 137.826 169.001 137.826 169.001H145.394C145.394 169.001 144.149 141.995 143.15 129.106C142.013 114.425 141.982 80.8465 141.982 80.8465L127.756 79.8545Z" fill="#98A2B3"/>
<path opacity="0.5" d="M127.756 79.8545C127.756 79.8545 129.32 115.229 131.065 127.209C132.975 140.328 137.826 169.001 137.826 169.001H145.394C145.394 169.001 144.149 141.995 143.15 129.106C142.013 114.425 141.982 80.8465 141.982 80.8465L127.756 79.8545Z" fill="white"/>
<path d="M136.917 169.162H145.828V166.5L135.867 166.327L136.917 169.162Z" fill="#98A2B3"/>
<path d="M118.439 168.138L126.723 167.199L126.423 164.522L117.146 165.431L118.439 168.138Z" fill="#98A2B3"/>
<path d="M131.594 29.3547C131.634 29.6857 131.494 29.9747 131.274 30.0007C131.054 30.0267 130.85 29.7797 130.811 29.4487C130.772 29.1177 130.911 28.8287 131.131 28.8027C131.351 28.7767 131.555 29.0237 131.594 29.3547Z" fill="#263238"/>
<path d="M127.853 29.8039C127.893 30.1349 127.753 30.4238 127.533 30.4498C127.313 30.4758 127.109 30.2289 127.069 29.8979C127.029 29.5669 127.169 29.2779 127.389 29.2519C127.609 29.2259 127.813 29.4769 127.853 29.8039Z" fill="#263238"/>
<path d="M129.062 29.8262C128.789 30.8849 128.372 31.9011 127.822 32.8462C128.068 32.9806 128.339 33.0598 128.618 33.0783C128.898 33.0968 129.177 33.0541 129.438 32.9532L129.062 29.8262Z" fill="#ED847E"/>
<path d="M132.609 28.0058C132.575 28.0163 132.538 28.0171 132.502 28.0081C132.467 27.9991 132.435 27.9807 132.409 27.9548C132.244 27.7729 132.038 27.6328 131.808 27.5459C131.578 27.459 131.331 27.4278 131.086 27.4548C131.036 27.4634 130.983 27.452 130.941 27.4229C130.898 27.3938 130.868 27.3493 130.857 27.2988C130.852 27.2735 130.852 27.2474 130.857 27.222C130.862 27.1967 130.872 27.1726 130.887 27.1513C130.902 27.1299 130.92 27.1117 130.942 27.0977C130.964 27.0837 130.988 27.0742 131.013 27.0698C131.322 27.0298 131.635 27.0646 131.928 27.1711C132.22 27.2776 132.482 27.4527 132.692 27.6818C132.728 27.719 132.748 27.7687 132.748 27.8203C132.748 27.8719 132.728 27.9216 132.692 27.9588C132.669 27.9812 132.641 27.9973 132.609 28.0058Z" fill="#263238"/>
<path d="M131.174 34.2732C131.646 34.1739 132.087 33.9625 132.46 33.6569C132.833 33.3512 133.127 32.9603 133.317 32.5172C133.326 32.4906 133.324 32.4615 133.312 32.4362C133.3 32.4109 133.278 32.3915 133.252 32.3822C133.225 32.3729 133.196 32.3745 133.171 32.3867C133.145 32.3989 133.126 32.4206 133.117 32.4472C132.935 32.8548 132.659 33.214 132.313 33.4957C131.967 33.7775 131.559 33.9739 131.123 34.0692C131.109 34.0723 131.096 34.078 131.085 34.086C131.074 34.094 131.064 34.1041 131.057 34.1158C131.05 34.1275 131.045 34.1405 131.042 34.1541C131.04 34.1678 131.041 34.1817 131.044 34.1952C131.047 34.2086 131.052 34.2213 131.06 34.2326C131.068 34.2439 131.079 34.2534 131.09 34.2608C131.102 34.2681 131.115 34.2731 131.129 34.2754C131.142 34.2777 131.156 34.2773 131.17 34.2742L131.174 34.2732Z" fill="#263238"/>
<path d="M126.095 28.7103C126.056 28.7234 126.014 28.7234 125.974 28.7103C125.926 28.6924 125.886 28.6565 125.864 28.6101C125.841 28.5637 125.838 28.5104 125.853 28.4613C125.947 28.1647 126.111 27.895 126.331 27.6753C126.552 27.4556 126.822 27.2923 127.118 27.1993C127.169 27.1879 127.221 27.1963 127.265 27.2228C127.31 27.2492 127.342 27.2917 127.355 27.3413C127.367 27.3913 127.359 27.4438 127.332 27.488C127.306 27.5321 127.264 27.5644 127.214 27.5783C126.981 27.6561 126.769 27.7883 126.597 27.9639C126.425 28.1395 126.297 28.3535 126.223 28.5883C126.213 28.6171 126.196 28.643 126.174 28.6642C126.151 28.6853 126.125 28.7011 126.095 28.7103Z" fill="#263238"/>
<path d="M138.532 174.834C138.249 174.856 137.967 174.782 137.732 174.623C137.658 174.559 137.602 174.479 137.567 174.389C137.532 174.299 137.52 174.202 137.532 174.106C137.531 174.048 137.547 173.992 137.577 173.944C137.606 173.895 137.649 173.855 137.7 173.829C138.159 173.593 139.49 174.413 139.64 174.507C139.656 174.517 139.669 174.532 139.677 174.55C139.685 174.568 139.688 174.587 139.685 174.607C139.681 174.626 139.673 174.643 139.66 174.658C139.646 174.672 139.629 174.682 139.611 174.687C139.258 174.776 138.896 174.825 138.532 174.834ZM137.918 173.979C137.874 173.977 137.831 173.985 137.791 174.003C137.77 174.014 137.754 174.031 137.743 174.051C137.732 174.071 137.727 174.095 137.729 174.118C137.72 174.183 137.727 174.25 137.75 174.312C137.774 174.374 137.812 174.429 137.862 174.473C138.323 174.683 138.848 174.71 139.329 174.547C138.898 174.267 138.417 174.074 137.913 173.979H137.918Z" fill="#98A2B3"/>
<path d="M139.584 174.689C139.567 174.689 139.551 174.685 139.537 174.677C139.11 174.445 138.283 173.539 138.37 173.077C138.384 173.005 138.423 172.94 138.479 172.893C138.536 172.847 138.607 172.821 138.681 172.82C138.755 172.811 138.831 172.818 138.902 172.84C138.974 172.861 139.041 172.898 139.098 172.946C139.578 173.339 139.677 174.531 139.68 174.581C139.681 174.599 139.677 174.616 139.67 174.632C139.662 174.648 139.65 174.662 139.636 174.671C139.62 174.682 139.602 174.688 139.584 174.689ZM138.75 173.014H138.705C138.578 173.03 138.567 173.088 138.562 173.114C138.51 173.386 139.037 174.07 139.462 174.393C139.434 173.921 139.263 173.468 138.974 173.093C138.911 173.041 138.831 173.013 138.75 173.014Z" fill="#98A2B3"/>
<path d="M121.295 174.057L121.279 174.064C120.632 174.271 119.474 174.564 118.979 174.218C118.906 174.167 118.846 174.1 118.805 174.021C118.764 173.942 118.743 173.854 118.743 173.766C118.739 173.712 118.749 173.658 118.772 173.61C118.795 173.561 118.83 173.52 118.874 173.489C119.339 173.162 121.086 173.805 121.284 173.88C121.301 173.887 121.316 173.899 121.326 173.914C121.337 173.929 121.343 173.947 121.344 173.965C121.345 173.984 121.341 174.002 121.333 174.018C121.324 174.035 121.311 174.048 121.295 174.058V174.057ZM119.012 173.633L118.989 173.647C118.971 173.659 118.957 173.675 118.948 173.695C118.939 173.715 118.936 173.736 118.939 173.758C118.938 173.816 118.951 173.874 118.977 173.927C119.004 173.979 119.043 174.024 119.091 174.058C119.699 174.247 120.355 174.212 120.939 173.958C120.334 173.689 119.671 173.577 119.011 173.633H119.012Z" fill="#98A2B3"/>
<path d="M121.297 174.057C121.273 174.069 121.246 174.071 121.221 174.063C120.701 173.897 119.621 173.12 119.641 172.648C119.646 172.537 119.709 172.392 119.973 172.335C120.068 172.313 120.167 172.312 120.263 172.33C120.359 172.348 120.45 172.386 120.531 172.441C120.955 172.846 121.24 173.374 121.347 173.951C121.35 173.967 121.349 173.985 121.344 174.001C121.339 174.017 121.329 174.032 121.317 174.044C121.311 174.049 121.304 174.053 121.297 174.057ZM119.906 172.567C119.839 172.603 119.837 172.645 119.836 172.661C119.822 172.945 120.568 173.567 121.109 173.813C121.009 173.352 120.77 172.933 120.424 172.613C120.365 172.572 120.298 172.544 120.227 172.53C120.157 172.516 120.084 172.518 120.014 172.534C119.977 172.54 119.94 172.551 119.906 172.567Z" fill="#98A2B3"/>
<path d="M146.882 50.4776C146.777 52.0916 146.587 53.5946 146.39 55.1466C146.193 56.6986 145.928 58.2196 145.637 59.7546C145.061 62.8898 144.211 65.9683 143.096 68.9546L142.605 70.1116L142.481 70.4006L142.45 70.4726L142.399 70.5826L142.255 70.8676C142.065 71.2139 141.836 71.5379 141.574 71.8336C141.143 72.3187 140.639 72.7337 140.08 73.0636C139.628 73.333 139.153 73.5635 138.661 73.7526C137.023 74.3434 135.311 74.7009 133.573 74.8146C130.419 75.0503 127.247 74.9319 124.119 74.4616L124.232 71.3616L126.418 71.1146C127.151 71.0276 127.88 70.9146 128.605 70.8146C130.052 70.6016 131.484 70.3636 132.849 70.0466C134.112 69.7896 135.339 69.3827 136.505 68.8346C136.82 68.7025 137.095 68.4922 137.305 68.2236C137.318 68.1526 137.16 68.4636 137.346 67.9666L137.673 67.0106C138.474 64.27 139.087 61.4778 139.507 58.6536C139.742 57.2156 139.943 55.7646 140.137 54.3096C140.331 52.8546 140.491 51.3696 140.644 49.9746L146.882 50.4776Z" fill="#FFC3BD"/>
<path d="M147.243 47.4813C149.266 50.8743 147.543 61.5383 147.543 61.5383L136.943 59.5793C136.943 59.5793 136.369 53.4793 138.387 48.7853C140.578 43.6763 144.792 43.3703 147.243 47.4813Z" fill="#98A2B3"/>
<path d="M121.264 80.9523L115.639 54.7883C115.369 53.671 114.743 52.6718 113.856 51.9413C112.968 51.2108 111.867 50.7885 110.719 50.7383H89.166C90.3145 50.7883 91.4156 51.2104 92.3033 51.941C93.1909 52.6715 93.817 53.6708 94.087 54.7883L99.712 80.9523C99.982 82.0696 100.608 83.0688 101.495 83.7993C102.383 84.5298 103.484 84.952 104.632 85.0023H126.184C125.036 84.952 123.935 84.5298 123.047 83.7993C122.16 83.0688 121.534 82.0696 121.264 80.9523Z" fill="#263238"/>
<path opacity="0.7" d="M121.264 80.9523L115.639 54.7883C115.369 53.671 114.743 52.6718 113.856 51.9413C112.968 51.2108 111.867 50.7885 110.719 50.7383H89.166C90.3145 50.7883 91.4156 51.2104 92.3033 51.941C93.1909 52.6715 93.817 53.6708 94.087 54.7883L99.712 80.9523C99.982 82.0696 100.608 83.0688 101.495 83.7993C102.383 84.5298 103.484 84.952 104.632 85.0023H126.184C125.036 84.952 123.935 84.5298 123.047 83.7993C122.16 83.0688 121.534 82.0696 121.264 80.9523Z" fill="#98A2B3"/>
<path d="M89.1653 50.7383H110.717C109.614 50.7589 108.556 51.1819 107.742 51.9277C106.929 52.6735 106.416 53.6908 106.299 54.7883L100.708 115.588C100.592 116.686 100.079 117.703 99.265 118.449C98.4515 119.194 97.3937 119.617 96.2903 119.638H82.8383C82.3201 119.648 81.8059 119.547 81.33 119.341C80.8541 119.136 80.4276 118.832 80.079 118.448C79.7303 118.065 79.4677 117.611 79.3086 117.118C79.1494 116.625 79.0975 116.103 79.1563 115.588L84.7483 54.7883C84.8646 53.6909 85.3776 52.6738 86.191 51.9281C87.0043 51.1823 88.062 50.7592 89.1653 50.7383Z" fill="#98A2B3"/>
<path d="M92.6088 115.587C92.55 116.102 92.6019 116.623 92.7611 117.117C92.9202 117.61 93.1829 118.063 93.5315 118.447C93.8801 118.83 94.3066 119.135 94.7825 119.34C95.2584 119.545 95.7726 119.647 96.2908 119.637H74.7388C74.2206 119.647 73.7063 119.546 73.2303 119.34C72.7544 119.135 72.3278 118.831 71.9791 118.447C71.6304 118.064 71.3678 117.61 71.2087 117.117C71.0497 116.623 70.9979 116.102 71.0568 115.587H92.6088Z" fill="#263238"/>
<path opacity="0.7" d="M92.6088 115.587C92.55 116.102 92.6019 116.623 92.7611 117.117C92.9202 117.61 93.1829 118.063 93.5315 118.447C93.8801 118.83 94.3066 119.135 94.7825 119.34C95.2584 119.545 95.7726 119.647 96.2908 119.637H74.7388C74.2206 119.647 73.7063 119.546 73.2303 119.34C72.7544 119.135 72.3278 118.831 71.9791 118.447C71.6304 118.064 71.3678 117.61 71.2087 117.117C71.0497 116.623 70.9979 116.102 71.0568 115.587H92.6088Z" fill="#98A2B3"/>
<g opacity="0.5">
<path opacity="0.5" d="M102.565 57.5502H87.9807C87.8681 57.5518 87.7564 57.5293 87.6531 57.4844C87.5499 57.4395 87.4573 57.3731 87.3817 57.2897C87.306 57.2063 87.2489 57.1077 87.2143 57.0006C87.1796 56.8934 87.1682 56.7801 87.1807 56.6682C87.2066 56.4295 87.3185 56.2083 87.4955 56.046C87.6725 55.8837 87.9026 55.7914 88.1427 55.7862H102.725C102.837 55.7847 102.949 55.8071 103.052 55.852C103.155 55.8969 103.248 55.9633 103.324 56.0467C103.399 56.1301 103.456 56.2287 103.491 56.3358C103.526 56.443 103.537 56.5563 103.525 56.6682C103.499 56.9066 103.387 57.1275 103.211 57.2898C103.034 57.452 102.804 57.5446 102.565 57.5502Z" fill="white"/>
<path opacity="0.5" d="M102.131 62.3217H87.5471C87.4345 62.3232 87.3228 62.3008 87.2196 62.2559C87.1163 62.211 87.0237 62.1446 86.9481 62.0612C86.8724 61.9778 86.8154 61.8792 86.7807 61.7721C86.7461 61.6649 86.7346 61.5516 86.7471 61.4397C86.773 61.2009 86.8849 60.9798 87.062 60.8175C87.239 60.6552 87.469 60.5628 87.7091 60.5577H102.293C102.406 60.5561 102.517 60.5786 102.621 60.6235C102.724 60.6684 102.816 60.7348 102.892 60.8182C102.968 60.9016 103.025 61.0001 103.059 61.1073C103.094 61.2145 103.106 61.3278 103.093 61.4397C103.067 61.6785 102.956 61.8998 102.778 62.0621C102.601 62.2245 102.371 62.3167 102.131 62.3217Z" fill="white"/>
<path opacity="0.5" d="M98.1225 67.0922H87.1135C87.0009 67.0937 86.8892 67.0713 86.786 67.0264C86.6827 66.9815 86.5901 66.9151 86.5145 66.8317C86.4388 66.7483 86.3818 66.6497 86.3471 66.5426C86.3125 66.4354 86.301 66.3221 86.3135 66.2102C86.3394 65.9714 86.4513 65.7503 86.6284 65.588C86.8054 65.4257 87.0354 65.3334 87.2755 65.3282H98.2845C98.3971 65.3267 98.5088 65.3491 98.612 65.394C98.7153 65.4389 98.8079 65.5053 98.8835 65.5887C98.9592 65.6721 99.0162 65.7707 99.0509 65.8778C99.0855 65.985 99.097 66.0983 99.0845 66.2102C99.0586 66.4489 98.9467 66.6701 98.7696 66.8324C98.5926 66.9947 98.3626 67.087 98.1225 67.0922Z" fill="white"/>
<path opacity="0.5" d="M90.4129 71.8617H86.6799C86.5673 71.8633 86.4557 71.8409 86.3524 71.7959C86.2491 71.751 86.1566 71.6847 86.0809 71.6012C86.0052 71.5178 85.9482 71.4193 85.9135 71.3121C85.8789 71.205 85.8674 71.0917 85.8799 70.9797C85.9056 70.7411 86.0173 70.5199 86.1942 70.3576C86.371 70.1953 86.6009 70.1029 86.8409 70.0977H90.5749C90.6875 70.0962 90.7992 70.1186 90.9024 70.1635C91.0057 70.2084 91.0983 70.2748 91.1739 70.3582C91.2496 70.4416 91.3066 70.5402 91.3413 70.6474C91.3759 70.7545 91.3874 70.8678 91.3749 70.9797C91.349 71.2185 91.2371 71.4396 91.06 71.6019C90.883 71.7642 90.653 71.8566 90.4129 71.8617Z" fill="white"/>
<path opacity="0.5" d="M100.828 76.6332H86.2404C86.1278 76.6348 86.0162 76.6123 85.9129 76.5674C85.8096 76.5225 85.7171 76.4561 85.6414 76.3727C85.5658 76.2893 85.5087 76.1908 85.4741 76.0836C85.4394 75.9764 85.428 75.8631 85.4404 75.7512C85.4664 75.5125 85.5783 75.2913 85.7553 75.129C85.9323 74.9667 86.1623 74.8744 86.4025 74.8692H100.986C101.099 74.8677 101.211 74.8901 101.314 74.935C101.417 74.9799 101.51 75.0463 101.585 75.1297C101.661 75.2131 101.718 75.3117 101.753 75.4188C101.787 75.526 101.799 75.6393 101.786 75.7512C101.761 75.9893 101.649 76.2099 101.473 76.3721C101.297 76.5343 101.068 76.6271 100.828 76.6332Z" fill="white"/>
<path opacity="0.5" d="M94.6527 81.4037H85.8127C85.7001 81.4053 85.5884 81.3828 85.4852 81.3379C85.3819 81.293 85.2893 81.2267 85.2137 81.1432C85.138 81.0598 85.081 80.9613 85.0463 80.8541C85.0117 80.747 85.0002 80.6337 85.0127 80.5217C85.0384 80.2831 85.1501 80.0619 85.327 79.8996C85.5038 79.7373 85.7337 79.6449 85.9737 79.6397H94.8137C94.9263 79.6382 95.038 79.6606 95.1412 79.7055C95.2445 79.7504 95.3371 79.8168 95.4127 79.9002C95.4884 79.9836 95.5454 80.0822 95.5801 80.1893C95.6147 80.2965 95.6262 80.4098 95.6137 80.5217C95.5878 80.7603 95.476 80.9813 95.2992 81.1436C95.1224 81.3059 94.8926 81.3983 94.6527 81.4037Z" fill="white"/>
<path opacity="0.5" d="M99.9612 86.1742H85.3772C85.2646 86.1758 85.1529 86.1534 85.0496 86.1084C84.9463 86.0635 84.8538 85.9972 84.7782 85.9137C84.7025 85.8303 84.6454 85.7318 84.6108 85.6246C84.5761 85.5175 84.5647 85.4042 84.5772 85.2922C84.6031 85.0535 84.715 84.8323 84.892 84.67C85.069 84.5077 85.2991 84.4154 85.5392 84.4102H100.124C100.237 84.4087 100.348 84.4311 100.452 84.476C100.555 84.5209 100.648 84.5873 100.723 84.6707C100.799 84.7541 100.856 84.8527 100.891 84.9599C100.925 85.067 100.937 85.1803 100.924 85.2922C100.898 85.5312 100.786 85.7524 100.609 85.9148C100.432 86.0771 100.201 86.1693 99.9612 86.1742Z" fill="white"/>
<path opacity="0.5" d="M95.9526 90.9447H84.9436C84.831 90.9463 84.7193 90.9239 84.616 90.879C84.5128 90.834 84.4202 90.7677 84.3446 90.6843C84.2689 90.6008 84.2118 90.5023 84.1772 90.3951C84.1425 90.288 84.1311 90.1747 84.1436 90.0627C84.1695 89.824 84.2814 89.6028 84.4584 89.4405C84.6355 89.2782 84.8655 89.1859 85.1056 89.1807H96.1146C96.2272 89.1792 96.3388 89.2016 96.4421 89.2465C96.5454 89.2914 96.6379 89.3578 96.7136 89.4412C96.7893 89.5247 96.8463 89.6232 96.881 89.7304C96.9156 89.8375 96.9271 89.9508 96.9146 90.0627C96.8886 90.3015 96.7767 90.5227 96.5997 90.685C96.4227 90.8472 96.1927 90.9396 95.9526 90.9447Z" fill="white"/>
<path opacity="0.5" d="M88.244 95.7152H84.508C84.3954 95.7168 84.2838 95.6944 84.1805 95.6495C84.0772 95.6045 83.9847 95.5382 83.909 95.4548C83.8334 95.3713 83.7763 95.2728 83.7417 95.1656C83.707 95.0585 83.6955 94.9452 83.708 94.8333C83.734 94.5945 83.8459 94.3733 84.0229 94.211C84.1999 94.0487 84.4299 93.9564 84.67 93.9512H88.408C88.5206 93.9497 88.6323 93.9721 88.7356 94.017C88.8388 94.062 88.9314 94.1283 89.007 94.2117C89.0827 94.2951 89.1398 94.3937 89.1744 94.5009C89.2091 94.608 89.2205 94.7213 89.208 94.8333C89.182 95.0723 89.0699 95.2938 88.8924 95.4561C88.715 95.6184 88.4845 95.7106 88.244 95.7152Z" fill="white"/>
<path opacity="0.5" d="M98.6584 100.487H84.0744C83.9618 100.488 83.8502 100.466 83.7469 100.421C83.6436 100.376 83.5511 100.31 83.4754 100.226C83.3998 100.143 83.3427 100.044 83.3081 99.9371C83.2734 99.83 83.2619 99.7167 83.2744 99.6047C83.3004 99.366 83.4123 99.1448 83.5893 98.9825C83.7663 98.8202 83.9963 98.7279 84.2364 98.7227H98.8204C98.933 98.7212 99.0447 98.7436 99.148 98.7885C99.2512 98.8334 99.3438 98.8998 99.4194 98.9832C99.4951 99.0666 99.5522 99.1652 99.5868 99.2724C99.6215 99.3795 99.6329 99.4928 99.6204 99.6047C99.5945 99.8435 99.4826 100.065 99.3056 100.227C99.1286 100.389 98.8985 100.482 98.6584 100.487Z" fill="white"/>
<path opacity="0.5" d="M92.4809 105.257H83.6408C83.5282 105.259 83.4166 105.236 83.3133 105.191C83.21 105.147 83.1175 105.08 83.0418 104.997C82.9662 104.913 82.9091 104.815 82.8745 104.708C82.8398 104.6 82.8283 104.487 82.8408 104.375C82.8666 104.136 82.9784 103.915 83.1555 103.753C83.3325 103.59 83.5627 103.498 83.8028 103.493H92.6418C92.7545 103.492 92.8661 103.514 92.9694 103.559C93.0727 103.604 93.1652 103.67 93.2409 103.754C93.3165 103.837 93.3736 103.936 93.4082 104.043C93.4429 104.15 93.4543 104.263 93.4418 104.375C93.4159 104.614 93.3042 104.835 93.1274 104.997C92.9506 105.159 92.7208 105.252 92.4809 105.257Z" fill="white"/>
<path opacity="0.5" d="M97.7912 110.028H83.2072C83.0946 110.029 82.983 110.007 82.8797 109.962C82.7764 109.917 82.6839 109.851 82.6082 109.767C82.5326 109.684 82.4755 109.585 82.4409 109.478C82.4062 109.371 82.3948 109.258 82.4072 109.146C82.4332 108.907 82.5451 108.686 82.7221 108.524C82.8991 108.361 83.1291 108.269 83.3693 108.264H97.9513C98.0639 108.262 98.1755 108.285 98.2788 108.33C98.3821 108.374 98.4746 108.441 98.5503 108.524C98.6259 108.608 98.683 108.706 98.7176 108.813C98.7523 108.921 98.7637 109.034 98.7512 109.146C98.7254 109.384 98.6137 109.605 98.4371 109.767C98.2605 109.93 98.031 110.022 97.7912 110.028Z" fill="white"/>
</g>
<path d="M125.502 71.6992L122.336 68.9482L120.852 74.0122C120.852 74.0122 124.068 75.7562 125.182 74.1552L125.502 71.6992Z" fill="#FFC3BD"/>
<path d="M118.887 68.75L117.857 72.994L120.849 74.014L122.333 68.949L118.887 68.75Z" fill="#FFC3BD"/>
</svg>